<?xml version="1.0" encoding="UTF-8"?>
<svg width="24px" height="24px" viewBox="0 0 24 24" version="1.1" xmlns="http://www.w3.org/2000/svg" xmlns:xlink="http://www.w3.org/1999/xlink">
    <!-- Generator: Sketch 48.2 (47327) - http://www.bohemiancoding.com/sketch -->
    <title>Icons/System/reload</title>
    <desc>Created with Sketch.</desc>
    <defs></defs>
    <g id="Symbols" stroke="none" stroke-width="1" fill="none" fill-rule="evenodd">
        <g id="Icons/System/reload" fill="#FFFFFF">
            <path d="M13.707,14.293 L16.707,17.293 C17.098,17.684 17.098,18.316 16.707,18.707 L13.707,21.707 C13.512,21.902 13.256,22 13,22 C12.744,22 12.488,21.902 12.293,21.707 C11.902,21.316 11.902,20.684 12.293,20.293 L13.586,19 L12,19 C8.14,19 5,15.859 5,12 C5,11.447 5.448,11 6,11 C6.552,11 7,11.447 7,12 C7,14.757 9.243,17 12,17 L13.586,17 L12.293,15.707 C11.902,15.316 11.902,14.684 12.293,14.293 C12.684,13.902 13.316,13.902 13.707,14.293 Z M12,5 C15.86,5 19,8.141 19,12 C19,12.553 18.552,13 18,13 C17.448,13 17,12.553 17,12 C17,9.243 14.757,7 12,7 L10.414,7 L11.707,8.293 C12.098,8.684 12.098,9.316 11.707,9.707 C11.512,9.902 11.256,10 11,10 C10.744,10 10.488,9.902 10.293,9.707 L7.293,6.707 C6.902,6.316 6.902,5.684 7.293,5.293 L10.293,2.293 C10.684,1.902 11.316,1.902 11.707,2.293 C12.098,2.684 12.098,3.316 11.707,3.707 L10.414,5 L12,5 Z" id="Combined-Shape"></path>
        </g>
    </g>
</svg>